<?xml version="1.0" encoding="UTF-8"?>
<svg version="1.1" xmlns="http://www.w3.org/2000/svg" width="500" height="500">
<path d="M0 0 C11.94584421 1.12929694 22.433443 9.18931568 31 17 C31.64453125 17.57492188 32.2890625 18.14984375 32.953125 18.7421875 C56.84718347 41.23704435 62.26758258 74.04453804 66 105 C77.40561535 104.64304164 85.70938731 101.50342889 95 95 C95.99 94.67 96.98 94.34 98 94 C108.36902441 129.25468301 101.89538533 165.96206471 85 198 C113.54206297 198.97302487 144.77269807 190.38358391 167.87109375 173.19140625 C171 171 171 171 174 171 C167.04920829 197.44730941 157.58490395 222.69475455 142.54296875 245.6328125 C141.44382207 247.3190983 140.41099259 249.04939783 139.42578125 250.8046875 C138.95527344 251.52914062 138.48476563 252.25359375 138 253 C137.34 253 136.68 253 136 253 C135.6596875 254.06154297 135.6596875 254.06154297 135.3125 255.14453125 C133.74123765 258.56296213 131.56555375 260.99935705 129 263.6875 C128.51450684 264.20570313 128.02901367 264.72390625 127.52880859 265.2578125 C114.98725814 278.56820922 114.98725814 278.56820922 108 284 C109.17949219 283.75443359 109.17949219 283.75443359 110.3828125 283.50390625 C114.90846849 282.87344229 119.31329568 282.89284476 123.875 282.9375 C124.75414062 282.94201172 125.63328125 282.94652344 126.5390625 282.95117188 C128.69273803 282.96287663 130.84637817 282.98080931 133 283 C132.125 287.75 132.125 287.75 131 290 C130.34 290 129.68 290 129 290 C128.690625 290.78375 128.38125 291.5675 128.0625 292.375 C127 295 127 295 126 297 C125.34 297 124.68 297 124 297 C123.80277344 297.68449219 123.60554688 298.36898438 123.40234375 299.07421875 C121.48143424 303.08191018 118.71821926 305.72908102 115.5625 308.8125 C114.93287354 309.4327002 114.30324707 310.05290039 113.65454102 310.69189453 C108.46817253 315.71341833 103.05959186 320.06297704 97 324 C95.47632813 325.01320313 95.47632813 325.01320313 93.921875 326.046875 C83.09149 333.00552817 71.80472314 337.70600798 59.44921875 341.23828125 C57.07721172 341.76771703 57.07721172 341.76771703 56 343 C64.56406148 347.5992182 73.49607751 348.64669065 83 350 C83 350.99 83 351.98 83 353 C78.91262259 353.98704589 74.82325019 354.96523715 70.73193359 355.93579102 C69.34465561 356.26613357 67.95791861 356.59875761 66.57177734 356.93383789 C41.03113908 363.10231695 14.6787416 363.66763434 -8.85546875 350.3671875 C-11 349 -11 349 -13 347 C-13.14287949 347.5325087 -13.28575897 348.0650174 -13.43296814 348.61366272 C-23.00649687 384.27815002 -32.90827915 419.77516733 -44 455 C-48.3972938 454.21775257 -51.94559445 452.82845741 -56 451 C-54.47977416 447.0414331 -52.95869686 443.08319385 -51.4375 439.125 C-51.01919922 438.03574219 -50.60089844 436.94648438 -50.16992188 435.82421875 C-49.74130859 434.70917969 -49.31269531 433.59414063 -48.87109375 432.4453125 C-48.41581299 431.25808594 -47.96053223 430.07085937 -47.49145508 428.84765625 C-46.45145895 426.14925013 -45.38760032 423.46145814 -44.3112793 420.77734375 C-39.976757 409.9147217 -36.31501209 398.94411499 -32.9375 387.75 C-32.41590587 386.03891533 -31.89409394 384.32789704 -31.37207031 382.61694336 C-27.68146667 370.47305868 -24.18023808 358.28855152 -21 346 C-22.32064453 346.41572266 -22.32064453 346.41572266 -23.66796875 346.83984375 C-24.82941406 347.20207031 -25.99085938 347.56429688 -27.1875 347.9375 C-28.33605469 348.29714844 -29.48460937 348.65679687 -30.66796875 349.02734375 C-54.89213897 356.09864315 -78.914647 346.77766545 -100.08984375 335.21875 C-103.94177562 333.06763529 -107.64294611 330.75116818 -111.23828125 328.19140625 C-113.09013201 326.93904598 -114.98229675 325.95762958 -117 325 C-116.67 324.34 -116.34 323.68 -116 323 C-113.50155125 322.78954102 -111.0648869 322.68106564 -108.5625 322.625 C-96.80139109 322.08520126 -88.5041352 318.35776454 -80 310 C-77.27551 306.53497924 -74.97035587 302.94071175 -73 299 C-74.12535156 299.05800781 -75.25070313 299.11601562 -76.41015625 299.17578125 C-94.47866904 299.82730917 -108.82475781 294.48152049 -122.62890625 282.76953125 C-132.15383162 273.66363813 -137.90007248 263.38989085 -142 251 C-142 250.01 -142 249.02 -142 248 C-138.19597164 248.59991845 -135.30361746 249.78069328 -131.875 251.5 C-123.5664599 255.11286142 -114.91758859 254.89739176 -106 255 C-106.4125 254.33097656 -106.825 253.66195312 -107.25 252.97265625 C-127.26591512 219.68726168 -138.77386954 177.62408323 -129.5 138.9375 C-128.20037807 134.20037807 -128.20037807 134.20037807 -127 133 C-123.70922307 132.31700856 -122.18961479 132.13645797 -119 133 C-116.42704622 134.87091013 -114.07581118 136.88679661 -111.70581055 139.00537109 C-99.46353687 149.80973616 -84.85602407 152.31978595 -69 153 C-69.34933594 152.0821875 -69.69867188 151.164375 -70.05859375 150.21875 C-74.82721956 137.35832004 -74.82721956 137.35832004 -75 131 C-75.05027344 129.9996875 -75.10054688 128.999375 -75.15234375 127.96875 C-75.74605682 106.88006171 -68.77160505 88.78828914 -58 71 C-57.38656738 69.97519531 -57.38656738 69.97519531 -56.76074219 68.9296875 C-55.56440155 66.94302555 -54.34971708 64.96927213 -53.125 63 C-52.75600586 62.39414063 -52.38701172 61.78828125 -52.00683594 61.1640625 C-50.9453125 59.5 -50.9453125 59.5 -49 57 C-48.01 57 -47.02 57 -46 57 C-45.85304688 58.16273437 -45.70609375 59.32546875 -45.5546875 60.5234375 C-43.89730877 72.66817723 -41.93086698 86.60369953 -35 97 C-25.51488641 94.86584944 -19.88096086 87.27854489 -14.890625 79.44921875 C-7.79413783 66.50252832 -5.02888526 52.95715291 -3.96484375 38.33984375 C-3.88126114 37.2687587 -3.79767853 36.19767365 -3.71156311 35.09413147 C-3.44782528 31.70899879 -3.19190265 28.32334611 -2.9375 24.9375 C-2.67897694 21.51957075 -2.41866542 18.10182402 -2.15272522 14.6844635 C-1.98796685 12.56585902 -1.82755873 10.44691098 -1.67185974 8.32762146 C-1.59830765 7.37895706 -1.52475555 6.43029266 -1.44897461 5.45288086 C-1.38616806 4.61478378 -1.32336151 3.77668671 -1.25865173 2.91319275 C-1 1 -1 1 0 0 Z " fill="#CB5B00" transform="translate(234,23)"/>
<path d="M0 0 C0.33 0 0.66 0 1 0 C1.25137 16.30811195 0.97348696 32.52663399 0.125 48.8125 C0.08570374 49.60166809 0.04640747 50.39083618 0.00592041 51.20391846 C-0.53436254 61.87818724 -1.52731297 72.41381965 -3 83 C10.83427274 78.28460119 21.80548274 71.19532831 32.890625 61.75 C35 60 35 60 37 59 C35.40622261 63.24671064 32.23151622 65.81678929 28.875 68.6875 C28.26406494 69.21134277 27.65312988 69.73518555 27.02368164 70.27490234 C19.42667719 76.57616724 7.17461946 86 -3 86 C-3.06695068 87.269646 -3.06695068 87.269646 -3.13525391 88.56494141 C-3.7319988 98.66649891 -4.80466487 108.67364518 -6.046875 118.71484375 C-6.37362402 121.36384471 -6.69111957 124.01384273 -7.0078125 126.6640625 C-8.17799538 136.30614546 -9.57062909 145.86921935 -11.33837891 155.42041016 C-11.9276881 158.6087686 -12.4773098 161.80014624 -13 165 C11.1567046 163.97094933 34.4957863 157.29995 53 141 C53.66 141.33 54.32 141.66 55 142 C36.40417071 159.97784101 10.59995738 169.61634941 -15 170 C-14.96592041 171.53660278 -14.96592041 171.53660278 -14.93115234 173.10424805 C-14.99457067 176.6927806 -15.39246672 179.82380268 -16.1015625 183.33203125 C-16.34173096 184.53118164 -16.58189941 185.73033203 -16.8293457 186.96582031 C-17.09191162 188.23522461 -17.35447754 189.50462891 -17.625 190.8125 C-17.89492797 192.13766424 -18.16470134 193.46285998 -18.43432617 194.78808594 C-25.75252986 230.50505972 -25.75252986 230.50505972 -28 235 C-28.21955908 236.81710002 -28.41843233 238.63670173 -28.609375 240.45703125 C-30.10001581 251.24492527 -33.26874413 261.6239812 -36.22998047 272.08374023 C-37.24204888 275.65940847 -38.24130881 279.23845611 -39.23828125 282.81835938 C-42.53901817 294.61785499 -45.98316439 306.35142075 -49.73144531 318.01635742 C-51.35647644 323.08174616 -52.82402507 328.18790259 -54.25 333.3125 C-55.7257454 338.58357998 -57.21006476 343.82438537 -59 349 C-63.34116587 348.3422476 -66.9947883 346.75965131 -71 345 C-69.47977416 341.0414331 -67.95869686 337.08319385 -66.4375 333.125 C-66.01919922 332.03574219 -65.60089844 330.94648438 -65.16992188 329.82421875 C-64.74130859 328.70917969 -64.31269531 327.59414063 -63.87109375 326.4453125 C-63.41581299 325.2581665 -62.96053223 324.07102051 -62.49145508 322.84790039 C-61.45117674 320.14880575 -60.38736398 317.46015742 -59.3112793 314.77514648 C-54.98653147 303.9322937 -51.31545736 292.9838008 -47.9375 281.8125 C-47.41571964 280.10407626 -46.89390945 278.39566164 -46.37207031 276.68725586 C-42.57976419 264.20738433 -39.08432053 251.67547515 -36 239 C-35.34 239 -34.68 239 -34 239 C-33.8860791 238.33718018 -33.7721582 237.67436035 -33.65478516 236.99145508 C-32.27982308 229.1897424 -30.54026255 221.50893746 -28.6796875 213.81054688 C-26.90616621 206.96390502 -26.90616621 206.96390502 -27 200 C-28.91033773 197.94892877 -28.91033773 197.94892877 -31.625 196.375 C-51.97486909 182.60814376 -66.84897545 164.54995813 -80.25 144.1875 C-80.84300903 143.29816772 -80.84300903 143.29816772 -81.44799805 142.39086914 C-82.36357086 140.96694719 -83.19145088 139.48730482 -84 138 C-83.505 137.01 -83.505 137.01 -83 136 C-81.90945312 137.59714844 -81.90945312 137.59714844 -80.796875 139.2265625 C-65.88991185 160.84040638 -48.07228242 183.24411208 -24 195 C-23.8875293 194.15252197 -23.77505859 193.30504395 -23.65917969 192.43188477 C-22.48339536 183.8591446 -20.96336744 175.41951147 -19.25 166.9375 C-16.98934488 155.53253958 -14.91968587 144.10123713 -13.02819824 132.62918091 C-12.76218542 131.01826509 -12.49344473 129.40779704 -12.22180176 127.79782104 C-9.62589284 115.41643736 -9.62589284 115.41643736 -10 103 C-11.89602067 100.71418089 -11.89602067 100.71418089 -14.75 99.5625 C-28.77617421 91.89052569 -41.32277593 78.50881569 -48 64 C-47.505 63.01 -47.505 63.01 -47 62 C-46.52691406 62.75023437 -46.05382812 63.50046875 -45.56640625 64.2734375 C-35.88720004 79.25450909 -24.67589117 90.39533201 -9 99 C-6.28784958 85.56061974 -4.97838878 72.15988107 -3.9375 58.5 C-3.76696442 56.33859439 -3.59606234 54.17721766 -3.42480469 52.01586914 C-2.06715361 34.69013024 -0.925751 17.3540681 0 0 Z " fill="#5D2402" transform="translate(249,129)"/>
<path d="M0 0 C0.33 0 0.66 0 1 0 C1.25306817 16.41828428 0.95329191 32.73114891 0.0625 49.125 C0.01893372 49.93551819 -0.02463257 50.74603638 -0.06951904 51.58111572 C-0.55016776 60.40389377 -1.1029162 69.20785433 -2 78 C-3.50244141 76.79785156 -3.50244141 76.79785156 -5 75 C-5.20458984 72.83496094 -5.20458984 72.83496094 -4.9609375 70.234375 C-4.87634277 69.22084961 -4.79174805 68.20732422 -4.70458984 67.16308594 C-4.5958252 66.03676758 -4.48706055 64.91044922 -4.375 63.75 C-4.16378646 61.25024169 -3.95570622 58.75021754 -3.75 56.25 C-3.69137787 55.55718933 -3.63275574 54.86437866 -3.57235718 54.15057373 C-2.76210868 44.44011249 -2.18491112 34.71322085 -1.57745361 24.98840332 C-1.37546618 21.75745687 -1.17126095 18.52665807 -0.96630859 15.29589844 C-0.64290061 10.19734723 -0.32100088 5.09870331 0 0 Z " fill="#732F01" transform="translate(249,129)"/>
<path d="M0 0 C0 3 0 3 -1.8359375 5.015625 C-9.98457448 12.18642554 -18.12215681 18.42692445 -28 23 C-28.33 22.01 -28.66 21.02 -29 20 C-28.33355469 19.6596875 -27.66710937 19.319375 -26.98046875 18.96875 C-17.08487158 13.76491149 -8.34589432 7.41857273 0 0 Z " fill="#652801" transform="translate(285,188)"/>
<path d="M0 0 C0.66 0.33 1.32 0.66 2 1 C-3.85261403 6.51722067 -10.12561037 10.84251068 -17 15 C-17.33 14.01 -17.66 13.02 -18 12 C-17.11957031 11.46890625 -16.23914063 10.9378125 -15.33203125 10.390625 C-14.15874318 9.67726585 -12.98557231 8.9637139 -11.8125 8.25 C-11.23435547 7.90195312 -10.65621094 7.55390625 -10.06054688 7.1953125 C-6.49266943 5.01830253 -3.20570486 2.68047638 0 0 Z " fill="#692A01" transform="translate(302,270)"/>
<path d="M0 0 C2.82928932 2.55071314 4.67893264 5.46621272 6.6875 8.6875 C7.31011719 9.68136719 7.93273437 10.67523438 8.57421875 11.69921875 C9.04472656 12.45847656 9.51523438 13.21773437 10 14 C9.01 14 8.02 14 7 14 C5.17578125 11.4453125 5.17578125 11.4453125 3.3125 8.125 C2.68988281 7.03445312 2.06726563 5.94390625 1.42578125 4.8203125 C0 2 0 2 0 0 Z " fill="#742F01" transform="translate(201,191)"/>
<path d="M0 0 C0 3 0 3 -2.1875 5.26171875 C-3.115625 6.06222656 -4.04375 6.86273438 -5 7.6875 C-5.928125 8.49574219 -6.85625 9.30398437 -7.8125 10.13671875 C-8.8953125 11.05904297 -8.8953125 11.05904297 -10 12 C-10.66 11.34 -11.32 10.68 -12 10 C-10.82630859 9.04287109 -10.82630859 9.04287109 -9.62890625 8.06640625 C-8.61699219 7.24011719 -7.60507812 6.41382813 -6.5625 5.5625 C-5.55316406 4.73878906 -4.54382813 3.91507813 -3.50390625 3.06640625 C-1.70216039 1.58798996 -1.70216039 1.58798996 0 0 Z " fill="#712E01" transform="translate(285,188)"/>
</svg>
